<svg xmlns="http://www.w3.org/2000/svg" viewBox="0 0 33 25"><defs><style>.cls-1{fill:#516eb7;}</style></defs><title>email-logo</title><g id="Layer_2" data-name="Layer 2"><g id="footer"><path class="cls-1" d="M29,0H4A4,4,0,0,0,0,4V21a4,4,0,0,0,4,4H29a4,4,0,0,0,4-4V4a4,4,0,0,0-4-4Zm2.19,21A2.19,2.19,0,0,1,29,23.17H4A2.19,2.19,0,0,1,1.84,21V4A2.19,2.19,0,0,1,4,1.84H29A2.19,2.19,0,0,1,31.16,4V21Zm0,0"/><path class="cls-1" d="M20.81,12.29l8.07-7.21A.92.92,0,0,0,29,3.79a.93.93,0,0,0-1.3-.07L16.52,13.66l-2.17-1.93v0l-.15-.13L5.35,3.71A.92.92,0,0,0,4,3.79a.91.91,0,0,0,.08,1.3l8.17,7.27L4.15,19.93a.92.92,0,0,0,0,1.3,1,1,0,0,0,.68.29.93.93,0,0,0,.63-.24l8.26-7.69,2.24,2a.92.92,0,0,0,1.23,0l2.3-2.05,8.21,7.76a.92.92,0,0,0,1.27-1.33Zm0,0"/></g></g></svg>