<svg xmlns="http://www.w3.org/2000/svg" viewBox="0 0 29 29"><defs><style>.cls-1{fill:#516eb7;}</style></defs><title>github-logo</title><g id="Layer_2" data-name="Layer 2"><g id="footer"><path class="cls-1" d="M14.5,0A14.5,14.5,0,1,0,29,14.56,14.6,14.6,0,0,0,14.5,0ZM17,27A12.86,12.86,0,0,1,12,27v-4a2.42,2.42,0,0,1,.59-1.75,18.51,18.51,0,0,0,1.05-1.55l-1.31-.2C8.93,19.08,7.6,17.33,7.07,16A5.78,5.78,0,0,1,8,10.43a1,1,0,0,0,.2-1,5,5,0,0,1-.05-2.5,7.75,7.75,0,0,1,2.6,1.24,1.22,1.22,0,0,0,.71.17,12.35,12.35,0,0,1,3.08-.44,10.41,10.41,0,0,1,2.84.41,1.23,1.23,0,0,0,.92-.14,7.55,7.55,0,0,1,2.6-1.24,5,5,0,0,1-.05,2.5,1,1,0,0,0,.2,1,5.78,5.78,0,0,1,.9,5.54c-.53,1.36-1.85,3.11-5.22,3.6l-1.31.2a18.17,18.17,0,0,0,1.05,1.55A2.42,2.42,0,0,1,17,23.07Zm1.7-.49V23.07A4.07,4.07,0,0,0,18.27,21a7.27,7.27,0,0,0,5.23-4.42,7.47,7.47,0,0,0-1-7,5.63,5.63,0,0,0-.36-3.81,1.33,1.33,0,0,0-1.12-.58h0a7.44,7.44,0,0,0-3.47,1.41,12,12,0,0,0-3.09-.41,11.73,11.73,0,0,0-3,.41A7.51,7.51,0,0,0,7.89,5.21a1.3,1.3,0,0,0-1.07.58,5.63,5.63,0,0,0-.36,3.81,7.48,7.48,0,0,0-1,7A7.27,7.27,0,0,0,10.73,21a3.69,3.69,0,0,0-.44,1.49,2.27,2.27,0,0,1-1.39.11,1.88,1.88,0,0,1-1.09-.93,3.49,3.49,0,0,0-3.13-1.94l.15,1.69c.61-.06,1.21.59,1.52,1.11a3.5,3.5,0,0,0,3.91,1.74v2.29a12.8,12.8,0,1,1,8.5,0Zm0,0"/></g></g></svg>