<svg xmlns="http://www.w3.org/2000/svg" xmlns:xlink="http://www.w3.org/1999/xlink" viewBox="0 0 201.14 81.86"><defs><style>.cls-1,.cls-6{fill:none;}.cls-2{clip-path:url(#clip-path);}.cls-3{fill:#526eb5;}.cls-4{clip-path:url(#clip-path-3);}.cls-5{fill:#fff;}.cls-6{stroke:#fff;stroke-miterlimit:10;}</style><clipPath id="clip-path" transform="translate(-0.96 17.76)"><rect class="cls-1" width="204.5" height="50.45"/></clipPath><clipPath id="clip-path-3" transform="translate(-0.96 17.76)"><path class="cls-1" d="M29.43,1.26,2.63,16.74A3.33,3.33,0,0,0,1.4,21.3L16.88,48.1a3.34,3.34,0,0,0,4.55,1.22L48.24,33.85a3.33,3.33,0,0,0,1.22-4.55L34,2.49a3.34,3.34,0,0,0-4.55-1.22"/></clipPath></defs><title>laura-tu-logo</title><g id="Layer_2" data-name="Layer 2"><g id="header"><g class="cls-2"><g class="cls-2"><path class="cls-3" d="M48.24,33.85,21.44,49.32a3.34,3.34,0,0,1-4.55-1.22L1.4,21.3a3.34,3.34,0,0,1,1.22-4.55L29.43,1.27A3.33,3.33,0,0,1,34,2.49l15.48,26.8a3.33,3.33,0,0,1-1.22,4.55" transform="translate(-0.96 17.76)"/></g><g class="cls-4"><polygon class="cls-5" points="29.44 68.46 2.98 49.65 29.33 0.74 34.82 4.64 11.47 47.98 32.43 62.89 29.44 68.46"/><polygon class="cls-6" points="29.44 68.46 2.98 49.65 29.33 0.74 34.82 4.64 11.47 47.98 32.43 62.89 29.44 68.46"/><polygon class="cls-5" points="45.38 41.19 32.5 41.19 32.5 81.36 27.41 81.36 27.41 41.19 14.43 41.19 14.43 36.03 45.38 36.03 45.38 41.19"/><polygon class="cls-6" points="45.38 41.19 32.5 41.19 32.5 81.36 27.41 81.36 27.41 41.19 14.43 41.19 14.43 36.03 45.38 36.03 45.38 41.19"/></g><g class="cls-2"><polygon class="cls-3" points="57.33 55.97 57.33 32.3 59.03 32.3 59.03 54.44 73.16 54.44 73.16 55.97 57.33 55.97"/><path class="cls-3" d="M84.06,14.53h1.47l10,23.67h-1.8l-3.3-7.8H79.12l-3.3,7.8H74ZM90,29,84.79,16.6,79.52,29Z" transform="translate(-0.96 17.76)"/><path class="cls-3" d="M106.56,36.8a8,8,0,0,0,4-.9,6.93,6.93,0,0,0,2.5-2.37,10.06,10.06,0,0,0,1.3-3.33,18.68,18.68,0,0,0,.38-3.77V14.53h1.7v11.9a19.51,19.51,0,0,1-.52,4.53,11,11,0,0,1-1.68,3.82,8.36,8.36,0,0,1-3,2.62,11.48,11.48,0,0,1-9.34,0,8.42,8.42,0,0,1-3-2.7,11,11,0,0,1-1.63-3.82,19.82,19.82,0,0,1-.48-4.4V14.53h1.7v11.9a19,19,0,0,0,.38,3.83,9.44,9.44,0,0,0,1.33,3.32,7.14,7.14,0,0,0,2.52,2.33,7.92,7.92,0,0,0,3.93.88" transform="translate(-0.96 17.76)"/><path class="cls-3" d="M121.23,38.2V14.53h9.83a6.12,6.12,0,0,1,2.77.63A7.07,7.07,0,0,1,136,16.85a8,8,0,0,1,1.43,2.37,7.19,7.19,0,0,1,.52,2.65,8,8,0,0,1-.4,2.52,7.44,7.44,0,0,1-1.13,2.18,6.4,6.4,0,0,1-1.77,1.6,6.21,6.21,0,0,1-2.27.83l5.9,9.2h-2l-5.73-8.93h-7.67V38.2Zm1.7-10.5h8.3a4.3,4.3,0,0,0,2.07-.5,5.22,5.22,0,0,0,1.6-1.32,5.84,5.84,0,0,0,1-1.87,6.76,6.76,0,0,0,.35-2.15,5.86,5.86,0,0,0-.42-2.18,6.15,6.15,0,0,0-1.13-1.85A5.66,5.66,0,0,0,133,16.55a4.45,4.45,0,0,0-2.05-.48h-8.07Z" transform="translate(-0.96 17.76)"/><path class="cls-3" d="M148.9,14.53h1.47l10,23.67h-1.8l-3.3-7.8H144l-3.3,7.8h-1.83ZM154.8,29l-5.17-12.4L144.36,29Z" transform="translate(-0.96 17.76)"/><polygon class="cls-3" points="178.91 35.6 171.04 35.6 171.04 55.97 167.27 55.97 167.27 35.6 159.37 35.6 159.37 32.3 178.91 32.3 178.91 35.6"/><path class="cls-3" d="M191.87,35a6,6,0,0,0,3.1-.73,5.86,5.86,0,0,0,2-1.92,8.08,8.08,0,0,0,1.07-2.7,15.21,15.21,0,0,0,.32-3.12v-12h3.77v12a18,18,0,0,1-.57,4.59,10.61,10.61,0,0,1-1.8,3.77,8.59,8.59,0,0,1-3.18,2.55,10.76,10.76,0,0,1-4.68.93,10.55,10.55,0,0,1-4.78-1,8.62,8.62,0,0,1-3.15-2.63A10.82,10.82,0,0,1,182.2,31a18.17,18.17,0,0,1-.53-4.43v-12h3.73v12a15.28,15.28,0,0,0,.32,3.15,8.06,8.06,0,0,0,1.07,2.7,5.66,5.66,0,0,0,2,1.9,6.12,6.12,0,0,0,3.08.72" transform="translate(-0.96 17.76)"/></g></g></g></g></svg>