<svg xmlns="http://www.w3.org/2000/svg" viewBox="0 0 29.5 29.5"><defs><style>.cls-1{fill:#516eb7;stroke:#516eb7;stroke-miterlimit:10;stroke-width:0.5px;fill-rule:evenodd;}</style></defs><title>linkedin-logo</title><g id="Layer_2" data-name="Layer 2"><g id="footer"><path class="cls-1" d="M6.58,8.35H1.08A.68.68,0,0,0,.41,9V28.46a.68.68,0,0,0,.68.69h5.5a.68.68,0,0,0,.68-.69V9a.68.68,0,0,0-.68-.69ZM5.9,27.77H1.77v-18H5.9Zm16-19.66a7.47,7.47,0,0,0-5.42,2.18L16.35,9a.69.69,0,0,0-.68-.62h0l-5,.1a.67.67,0,0,0-.48.22.7.7,0,0,0-.19.5c.06,1.41.06,3.08.06,5v14.4a.68.68,0,0,0,.68.69h5.5a.68.68,0,0,0,.68-.69V17.33A3.76,3.76,0,0,1,17,16.1a3.11,3.11,0,0,1,2.77-1.79c1.68,0,2.68,1.29,2.68,3.46v10.8a.69.69,0,0,0,.68.69h5.4a.69.69,0,0,0,.68-.69V17.06c0-5.6-2.75-8.95-7.36-8.95Zm6,19.76h-4V17.76c0-2.94-1.59-4.84-4-4.84a4.49,4.49,0,0,0-4,2.66,4.8,4.8,0,0,0-.24,1.74V27.87H11.4V14.16c0-1.63,0-3.07,0-4.35L15,9.74,15.26,12a.68.68,0,0,0,.68.62h.12a.68.68,0,0,0,.58-.32,6,6,0,0,1,5.26-2.77c3.81,0,6,2.76,6,7.57ZM4.06.25A3.62,3.62,0,0,0,.25,3.91,3.58,3.58,0,0,0,4,7.57,3.64,3.64,0,0,0,7.84,3.9,3.61,3.61,0,0,0,4.06.25ZM4,6.2A2.23,2.23,0,0,1,1.61,3.91,2.24,2.24,0,0,1,4.06,1.63,2.24,2.24,0,0,1,6.48,3.91,2.27,2.27,0,0,1,4,6.2Zm0,0"/></g></g></svg>